<svg width="40" height="40" viewBox="0 0 40 40" fill="none" xmlns="http://www.w3.org/2000/svg">
<path d="M4.75 4C4.75 3.13805 5.09241 2.3114 5.7019 1.7019C6.3114 1.09241 7.13805 0.75 8 0.75H24C24.121 0.75 24.238 0.798 24.323 0.884L35.116 11.677C35.2014 11.7628 35.2496 11.8789 35.25 12V36C35.25 36.862 34.9076 37.6886 34.2981 38.2981C33.6886 38.9076 32.862 39.25 32 39.25H8C7.13805 39.25 6.3114 38.9076 5.7019 38.2981C5.09241 37.6886 4.75 36.862 4.75 36V4Z" stroke="#D5D7DA" stroke-width="1.5"/>
<path d="M24 0.5V8C24 9.06087 24.4214 10.0783 25.1716 10.8284C25.9217 11.5786 26.9391 12 28 12H35.5" stroke="#D5D7DA" stroke-width="1.5"/>
<path d="M16.8501 28.5001V19.7671C16.8501 19.4051 16.8501 19.2251 16.9161 19.0781C16.9741 18.9492 17.0673 18.8393 17.1851 18.7611C17.3181 18.6721 17.4971 18.6421 17.8531 18.5831L24.4531 17.4831C24.9331 17.4031 25.1731 17.3631 25.3611 17.4331C25.5257 17.494 25.6637 17.6108 25.7511 17.7631C25.8501 17.9351 25.8501 18.1791 25.8501 18.6671V27.0001M16.8501 28.5001C16.8501 28.7955 16.7919 29.0881 16.6788 29.3611C16.5658 29.6341 16.4 29.8821 16.1911 30.0911C15.9822 30.3 15.7341 30.4657 15.4611 30.5788C15.1882 30.6919 14.8956 30.7501 14.6001 30.7501C14.3046 30.7501 14.012 30.6919 13.7391 30.5788C13.4661 30.4657 13.218 30.3 13.0091 30.0911C12.8002 29.8821 12.6344 29.6341 12.5214 29.3611C12.4083 29.0881 12.3501 28.7955 12.3501 28.5001C12.3501 27.9033 12.5871 27.331 13.0091 26.9091C13.4311 26.4871 14.0034 26.2501 14.6001 26.2501C15.1968 26.2501 15.7691 26.4871 16.1911 26.9091C16.613 27.331 16.8501 27.9033 16.8501 28.5001ZM25.8501 27.0001C25.8501 27.5968 25.613 28.1691 25.1911 28.5911C24.7691 29.013 24.1968 29.2501 23.6001 29.2501C23.0034 29.2501 22.4311 29.013 22.0091 28.5911C21.5872 28.1691 21.3501 27.5968 21.3501 27.0001C21.3501 26.4033 21.5872 25.831 22.0091 25.4091C22.4311 24.9871 23.0034 24.7501 23.6001 24.7501C24.1968 24.7501 24.7691 24.9871 25.1911 25.4091C25.613 25.831 25.8501 26.4033 25.8501 27.0001Z" stroke="#DD2590" stroke-width="1.5" stroke-linecap="round" stroke-linejoin="round"/>
</svg>
