<svg width="40" height="40" viewBox="0 0 40 40" fill="none" xmlns="http://www.w3.org/2000/svg">
<path d="M7.75 4C7.75 3.13805 8.09241 2.3114 8.7019 1.7019C9.3114 1.09241 10.138 0.75 11 0.75H27C27.121 0.75 27.238 0.798 27.323 0.884L38.116 11.677C38.2014 11.7628 38.2496 11.8789 38.25 12V36C38.25 36.862 37.9076 37.6886 37.2981 38.2981C36.6886 38.9076 35.862 39.25 35 39.25H11C10.138 39.25 9.3114 38.9076 8.7019 38.2981C8.09241 37.6886 7.75 36.862 7.75 36V4Z" stroke="#D5D7DA" stroke-width="1.5"/>
<path d="M27 0.5V8C27 9.06087 27.4214 10.0783 28.1716 10.8284C28.9217 11.5786 29.9391 12 31 12H38.5" stroke="#D5D7DA" stroke-width="1.5"/>
<path d="M26 18H3C1.89543 18 1 18.8954 1 20V32C1 33.1046 1.89543 34 3 34H26C27.1046 34 28 33.1046 28 32V20C28 18.8954 27.1046 18 26 18Z" fill="#444CE7"/>
<path d="M11.2369 25.2731H9.67992C9.6563 25.085 9.59726 24.9032 9.50592 24.7371C9.42023 24.582 9.30587 24.4445 9.16892 24.3321C9.02698 24.219 8.8657 24.1326 8.69292 24.0771C8.50613 24.0157 8.31054 23.9853 8.11392 23.9871C7.73792 23.9871 7.40992 24.0811 7.12992 24.2691C6.85058 24.4531 6.63392 24.7231 6.47992 25.0791C6.32658 25.4311 6.24992 25.8594 6.24992 26.3641C6.24992 26.8821 6.32658 27.3174 6.47992 27.6701C6.63725 28.0234 6.85525 28.2901 7.13392 28.4701C7.41258 28.6501 7.73592 28.7401 8.10392 28.7401C8.30925 28.7401 8.49958 28.7128 8.67492 28.6581C8.85292 28.6034 9.01025 28.5241 9.14692 28.4201C9.28357 28.3133 9.3992 28.1821 9.48792 28.0331C9.58125 27.8811 9.64525 27.7081 9.67992 27.5141L11.2359 27.5211C11.1959 27.8551 11.0953 28.1771 10.9339 28.4871C10.7717 28.7999 10.5538 29.0804 10.2909 29.3151C10.0101 29.5652 9.68479 29.7602 9.33192 29.8901C8.96258 30.0301 8.54492 30.1001 8.07892 30.1001C7.42892 30.1001 6.84892 29.9534 6.33892 29.6601C5.82268 29.3588 5.40349 28.916 5.13092 28.3841C4.83758 27.8281 4.69092 27.1548 4.69092 26.3641C4.69092 25.5708 4.83992 24.8961 5.13792 24.3401C5.43592 23.7841 5.84092 23.3601 6.35292 23.0681C6.87893 22.7706 7.47471 22.6188 8.07892 22.6281C8.49959 22.6281 8.88992 22.6871 9.24992 22.8051C9.61258 22.9244 9.93358 23.0974 10.2129 23.3241C10.4923 23.5488 10.7196 23.8244 10.8949 24.1511C11.0716 24.4778 11.1849 24.8518 11.2349 25.2731M16.2819 24.8191C16.2736 24.6878 16.2366 24.56 16.1735 24.4446C16.1105 24.3292 16.0229 24.229 15.9169 24.1511C15.7009 23.9924 15.4083 23.9131 15.0389 23.9131C14.7889 23.9131 14.5773 23.9488 14.4039 24.0201C14.2471 24.0773 14.1093 24.177 14.0059 24.3081C13.917 24.4296 13.8697 24.5765 13.8709 24.7271C13.8639 24.8461 13.8924 24.9644 13.9529 25.0671C14.0192 25.1674 14.1049 25.2534 14.2049 25.3201C14.3116 25.3888 14.4349 25.4488 14.5749 25.5001C14.7143 25.5501 14.8633 25.5931 15.0219 25.6291L15.6749 25.7851C15.9923 25.8558 16.2836 25.9504 16.5489 26.0691C16.8143 26.1871 17.0439 26.3328 17.2379 26.5061C17.4319 26.6788 17.5819 26.8821 17.6879 27.1161C17.7973 27.3514 17.8533 27.6204 17.8559 27.9231C17.8533 28.3678 17.7396 28.7534 17.5149 29.0801C17.2923 29.4048 16.9703 29.6571 16.5489 29.8371C16.1289 30.0144 15.6233 30.1031 15.0319 30.1031C14.4453 30.1031 13.9339 30.0131 13.4979 29.8331C13.0888 29.6717 12.7359 29.3939 12.4829 29.0341C12.2409 28.6788 12.1143 28.2398 12.1029 27.7171H13.5909C13.6069 27.9611 13.6769 28.1644 13.8009 28.3271C13.9263 28.4884 14.0929 28.6104 14.3009 28.6931C14.5109 28.7731 14.7489 28.8131 15.0149 28.8131C15.2749 28.8131 15.5009 28.7754 15.6929 28.7001C15.8689 28.6372 16.0247 28.528 16.1439 28.3841C16.2494 28.2523 16.306 28.0879 16.3039 27.9191C16.3039 27.7564 16.2553 27.6191 16.1579 27.5071C16.0422 27.3811 15.8988 27.2839 15.7389 27.2231C15.5219 27.1325 15.2974 27.0612 15.0679 27.0101L14.2759 26.8111C13.6626 26.6618 13.1786 26.4284 12.8239 26.1111C12.4679 25.7944 12.2913 25.3671 12.2939 24.8291C12.2919 24.3891 12.4093 24.0044 12.6459 23.6751C12.8859 23.3464 13.2139 23.0898 13.6299 22.9051C14.0459 22.7204 14.5193 22.6281 15.0499 22.6281C15.5899 22.6281 16.0613 22.7204 16.4639 22.9051C16.8686 23.0891 17.1833 23.3458 17.4079 23.6751C17.6333 24.0044 17.7493 24.3858 17.7559 24.8191H16.2819ZM22.8349 24.8191C22.8265 24.6878 22.7893 24.5599 22.7261 24.4445C22.6628 24.329 22.5751 24.2289 22.4689 24.1511C22.2543 23.9924 21.9619 23.9131 21.5919 23.9131C21.3413 23.9131 21.1296 23.9488 20.9569 24.0201C20.8001 24.0773 20.6623 24.177 20.5589 24.3081C20.47 24.4296 20.4227 24.5765 20.4239 24.7271C20.4169 24.8461 20.4454 24.9644 20.5059 25.0671C20.5711 25.1683 20.657 25.2546 20.7579 25.3201C20.8646 25.3888 20.9879 25.4488 21.1279 25.5001C21.2673 25.5501 21.4163 25.5931 21.5749 25.6291L22.2279 25.7851C22.5446 25.8558 22.8359 25.9504 23.1019 26.0691C23.3666 26.1871 23.5959 26.3328 23.7899 26.5061C23.9846 26.6788 24.1349 26.8821 24.2409 27.1161C24.3509 27.3514 24.4066 27.6204 24.4079 27.9231C24.4059 28.3678 24.2926 28.7534 24.0679 29.0801C23.8453 29.4048 23.5233 29.6571 23.1019 29.8371C22.6819 30.0144 22.1763 30.1031 21.5849 30.1031C20.9983 30.1031 20.4869 30.0131 20.0509 29.8331C19.6418 29.6717 19.2889 29.3939 19.0359 29.0341C18.7939 28.6788 18.6673 28.2398 18.6559 27.7171H20.1429C20.1596 27.9611 20.2296 28.1644 20.3529 28.3271C20.4783 28.4884 20.6449 28.6104 20.8529 28.6931C21.0643 28.7731 21.3023 28.8131 21.5669 28.8131C21.8269 28.8131 22.0533 28.7754 22.2459 28.7001C22.4216 28.637 22.577 28.5279 22.6959 28.3841C22.8014 28.2523 22.858 28.0879 22.8559 27.9191C22.8559 27.7564 22.8076 27.6191 22.7109 27.5071C22.5949 27.381 22.4511 27.2838 22.2909 27.2231C22.0743 27.1326 21.8501 27.0613 21.6209 27.0101L20.8289 26.8111C20.2156 26.6618 19.7313 26.4284 19.3759 26.1111C19.0213 25.7944 18.8449 25.3671 18.8469 24.8291C18.8449 24.3891 18.9623 24.0044 19.1989 23.6751C19.4383 23.3464 19.7659 23.0898 20.1819 22.9051C20.5986 22.7204 21.0719 22.6281 21.6019 22.6281C22.1419 22.6281 22.6133 22.7204 23.0159 22.9051C23.4213 23.0891 23.7363 23.3458 23.9609 23.6751C24.1856 24.0044 24.3016 24.3858 24.3089 24.8191H22.8349Z" fill="white"/>
</svg>
