<svg width="40" height="40" viewBox="0 0 40 40" fill="none" xmlns="http://www.w3.org/2000/svg">
<path d="M7.75 4C7.75 3.13805 8.09241 2.3114 8.7019 1.7019C9.3114 1.09241 10.138 0.75 11 0.75H27C27.121 0.75 27.238 0.798 27.323 0.884L38.116 11.677C38.2014 11.7628 38.2496 11.8789 38.25 12V36C38.25 36.862 37.9076 37.6886 37.2981 38.2981C36.6886 38.9076 35.862 39.25 35 39.25H11C10.138 39.25 9.3114 38.9076 8.7019 38.2981C8.09241 37.6886 7.75 36.862 7.75 36V4Z" stroke="#D5D7DA" stroke-width="1.5"/>
<path d="M27 0.5V8C27 9.06087 27.4214 10.0783 28.1716 10.8284C28.9217 11.5786 29.9391 12 31 12H38.5" stroke="#D5D7DA" stroke-width="1.5"/>
<path d="M27 18H3C1.89543 18 1 18.8954 1 20V32C1 33.1046 1.89543 34 3 34H27C28.1046 34 29 33.1046 29 32V20C29 18.8954 28.1046 18 27 18Z" fill="#079455"/>
<path d="M11.273 25.2731H9.71703C9.69341 25.085 9.63437 24.9032 9.54303 24.7371C9.45734 24.582 9.34298 24.4445 9.20603 24.3321C9.06409 24.219 8.90281 24.1326 8.73003 24.0771C8.54324 24.0157 8.34765 23.9853 8.15103 23.9871C7.77503 23.9871 7.44736 24.0811 7.16803 24.2691C6.88803 24.4531 6.67136 24.7231 6.51803 25.0791C6.36403 25.4311 6.28703 25.8594 6.28703 26.3641C6.28703 26.8821 6.36369 27.3174 6.51703 27.6701C6.67436 28.0234 6.89236 28.2901 7.17103 28.4701C7.45103 28.6501 7.77436 28.7401 8.14103 28.7401C8.34703 28.7401 8.53736 28.7128 8.71203 28.6581C8.89003 28.6034 9.04769 28.5241 9.18503 28.4201C9.32132 28.3132 9.43661 28.182 9.52503 28.0331C9.61836 27.8811 9.68236 27.7081 9.71703 27.5141L11.273 27.5211C11.233 27.8551 11.1324 28.1771 10.971 28.4871C10.8088 28.7999 10.5909 29.0804 10.328 29.3151C10.0472 29.5652 9.7219 29.7602 9.36903 29.8901C8.99969 30.0301 8.58203 30.1001 8.11603 30.1001C7.46736 30.1001 6.88736 29.9534 6.37603 29.6601C5.85979 29.3588 5.4406 28.916 5.16803 28.3841C4.87469 27.8281 4.72803 27.1548 4.72803 26.3641C4.72803 25.5708 4.87703 24.8961 5.17503 24.3401C5.47369 23.7834 5.87869 23.3594 6.39003 23.0681C6.91604 22.7706 7.51182 22.6188 8.11603 22.6281C8.53736 22.6281 8.92803 22.6871 9.28803 22.8051C9.65003 22.9244 9.97069 23.0974 10.25 23.3241C10.53 23.5488 10.7574 23.8244 10.932 24.1511C11.1087 24.4778 11.223 24.8518 11.273 25.2731ZM16.32 24.8191C16.3116 24.6878 16.2744 24.5599 16.2112 24.4445C16.1479 24.329 16.0602 24.2289 15.954 24.1511C15.738 23.9924 15.4457 23.9131 15.077 23.9131C14.8257 23.9131 14.6137 23.9488 14.441 24.0201C14.2842 24.0773 14.1464 24.177 14.043 24.3081C13.9541 24.4296 13.9068 24.5765 13.908 24.7271C13.901 24.8461 13.9295 24.9644 13.99 25.0671C14.0552 25.1683 14.1411 25.2546 14.242 25.3201C14.3487 25.3888 14.472 25.4488 14.612 25.5001C14.752 25.5501 14.901 25.5931 15.059 25.6291L15.712 25.7851C16.03 25.8558 16.3214 25.9504 16.586 26.0691C16.8514 26.1871 17.081 26.3328 17.275 26.5061C17.469 26.6788 17.619 26.8821 17.725 27.1161C17.8344 27.3514 17.8904 27.6204 17.893 27.9231C17.8904 28.3678 17.7767 28.7534 17.552 29.0801C17.3287 29.4048 17.0067 29.6571 16.586 29.8371C16.166 30.0144 15.6607 30.1031 15.07 30.1031C14.482 30.1031 13.9707 30.0131 13.536 29.8331C13.1265 29.6719 12.7733 29.3941 12.52 29.0341C12.2787 28.6788 12.152 28.2398 12.14 27.7171H13.628C13.644 27.9611 13.714 28.1644 13.838 28.3271C13.9634 28.4884 14.13 28.6104 14.338 28.6931C14.5487 28.7731 14.7867 28.8131 15.052 28.8131C15.312 28.8131 15.538 28.7754 15.73 28.7001C15.906 28.6372 16.0618 28.528 16.181 28.3841C16.2865 28.2523 16.3431 28.0879 16.341 27.9191C16.341 27.7564 16.2924 27.6191 16.195 27.5071C16.0793 27.3811 15.9359 27.2839 15.776 27.2231C15.5594 27.1326 15.3352 27.0613 15.106 27.0101L14.313 26.8111C13.6997 26.6618 13.2157 26.4284 12.861 26.1111C12.5057 25.7944 12.329 25.3671 12.331 24.8291C12.329 24.3891 12.4464 24.0044 12.683 23.6751C12.923 23.3464 13.251 23.0898 13.667 22.9051C14.0837 22.7204 14.557 22.6281 15.087 22.6281C15.627 22.6281 16.0984 22.7204 16.501 22.9051C16.9064 23.0891 17.221 23.3458 17.445 23.6751C17.6704 24.0044 17.7864 24.3858 17.793 24.8191H16.32ZM20.24 22.7271L22 28.2531H22.067L23.829 22.7271H25.533L23.026 30.0001H21.044L18.534 22.7271H20.24Z" fill="white"/>
</svg>
