<svg width="40" height="40" viewBox="0 0 40 40" fill="none" xmlns="http://www.w3.org/2000/svg">
<path d="M4.75 4C4.75 3.13805 5.09241 2.3114 5.7019 1.7019C6.3114 1.09241 7.13805 0.75 8 0.75H24C24.121 0.75 24.238 0.798 24.323 0.884L35.116 11.677C35.2014 11.7628 35.2496 11.8789 35.25 12V36C35.25 36.862 34.9076 37.6886 34.2981 38.2981C33.6886 38.9076 32.862 39.25 32 39.25H8C7.13805 39.25 6.3114 38.9076 5.7019 38.2981C5.09241 37.6886 4.75 36.862 4.75 36V4Z" stroke="#D5D7DA" stroke-width="1.5"/>
<path d="M24 0.5V8C24 9.06087 24.4214 10.0783 25.1716 10.8284C25.9217 11.5786 26.9391 12 28 12H35.5" stroke="#D5D7DA" stroke-width="1.5"/>
<path d="M11.8999 19.5H28.0999M11.8999 23.1H28.0999M11.8999 26.7H28.0999M11.8999 30.3H24.4999" stroke="#155EEF" stroke-width="1.5" stroke-linecap="round" stroke-linejoin="round"/>
</svg>
