<svg width="40" height="40" viewBox="0 0 40 40" fill="none" xmlns="http://www.w3.org/2000/svg">
<path d="M7.75 4C7.75 3.13805 8.09241 2.3114 8.7019 1.7019C9.3114 1.09241 10.138 0.75 11 0.75H27C27.121 0.75 27.238 0.798 27.323 0.884L38.116 11.677C38.2014 11.7628 38.2496 11.8789 38.25 12V36C38.25 36.862 37.9076 37.6886 37.2981 38.2981C36.6886 38.9076 35.862 39.25 35 39.25H11C10.138 39.25 9.3114 38.9076 8.7019 38.2981C8.09241 37.6886 7.75 36.862 7.75 36V4Z" stroke="#D5D7DA" stroke-width="1.5"/>
<path d="M27 0.5V8C27 9.06087 27.4214 10.0783 28.1716 10.8284C28.9217 11.5786 29.9391 12 31 12H38.5" stroke="#D5D7DA" stroke-width="1.5"/>
<path d="M28 18H3C1.89543 18 1 18.8954 1 20V32C1 33.1046 1.89543 34 3 34H28C29.1046 34 30 33.1046 30 32V20C30 18.8954 29.1046 18 28 18Z" fill="#155EEF"/>
<path d="M7.40197 29.9999H4.82397V22.7269H7.42297C8.15364 22.7269 8.78364 22.8726 9.31297 23.1639C9.83964 23.4526 10.2453 23.8679 10.53 24.4099C10.8166 24.9526 10.96 25.6016 10.96 26.3569C10.96 27.1142 10.8166 27.7652 10.53 28.3099C10.258 28.842 9.83079 29.2789 9.30498 29.5629C8.77431 29.8542 8.13997 29.9999 7.40197 29.9999ZM6.36197 28.6829H7.33797C7.79264 28.6829 8.17497 28.6022 8.48497 28.4409C8.79697 28.2782 9.03131 28.0262 9.18797 27.6849C9.34597 27.3409 9.42531 26.8982 9.42597 26.3569C9.42597 25.8189 9.34664 25.3796 9.18797 25.0389C9.04779 24.7151 8.80068 24.4493 8.48797 24.2859C8.17797 24.1259 7.79564 24.0456 7.34097 24.0449H6.36097L6.36197 28.6829ZM18.782 26.3629C18.782 27.1562 18.632 27.8312 18.332 28.3879C18.0555 28.9214 17.6312 29.364 17.11 29.6629C16.5806 29.9579 15.9829 30.1083 15.377 30.0989C14.7683 30.1088 14.1678 29.9569 13.637 29.6589C13.1172 29.3591 12.6941 28.9166 12.418 28.3839C12.12 27.8279 11.971 27.1546 11.971 26.3639C11.971 25.5706 12.12 24.8959 12.418 24.3399C12.6927 23.8069 13.1162 23.3651 13.637 23.0679C14.1678 22.7698 14.7683 22.618 15.377 22.6279C16.0183 22.6279 16.596 22.7746 17.11 23.0679C17.626 23.3592 18.033 23.7829 18.331 24.3389C18.631 24.8956 18.7813 25.5696 18.782 26.3629ZM17.223 26.3639C17.223 25.8506 17.1463 25.4172 16.993 25.0639C16.841 24.7112 16.6266 24.4439 16.35 24.2619C16.06 24.0761 15.7212 23.981 15.377 23.9889C15.0327 23.981 14.6939 24.0761 14.404 24.2619C14.1266 24.4446 13.911 24.7122 13.757 25.0649C13.6056 25.4182 13.53 25.8516 13.53 26.3649C13.53 26.8782 13.6056 27.3116 13.757 27.6649C13.911 28.0176 14.1266 28.2849 14.404 28.4669C14.6806 28.6489 15.005 28.7399 15.377 28.7399C15.7483 28.7399 16.0726 28.6489 16.35 28.4669C16.6273 28.2849 16.8413 28.0172 16.992 27.6639C17.146 27.3119 17.223 26.8786 17.223 26.3639ZM26.338 25.2739H24.783C24.7594 25.0858 24.7003 24.904 24.609 24.7379C24.523 24.5827 24.4083 24.4453 24.271 24.3329C24.129 24.2198 23.9678 24.1334 23.795 24.0779C23.6085 24.0166 23.4133 23.9862 23.217 23.9879C22.8396 23.9879 22.5116 24.0819 22.233 24.2699C21.953 24.4539 21.7363 24.7239 21.583 25.0799C21.4296 25.4319 21.353 25.8602 21.353 26.3649C21.353 26.8829 21.4296 27.3182 21.583 27.6709C21.739 28.0242 21.957 28.2909 22.237 28.4709C22.5163 28.6509 22.8393 28.7409 23.206 28.7409C23.4113 28.7409 23.602 28.7136 23.778 28.6589C23.9553 28.6042 24.1126 28.5249 24.25 28.4209C24.3866 28.3142 24.5 28.1852 24.59 28.0339C24.6833 27.8819 24.7476 27.7089 24.783 27.5149L26.338 27.5219C26.298 27.8559 26.1973 28.1779 26.036 28.4879C25.8737 28.8007 25.6558 29.0812 25.393 29.3159C25.1125 29.5659 24.7875 29.7609 24.435 29.8909C24.0656 30.0309 23.6476 30.1009 23.181 30.1009C22.5316 30.1009 21.9516 29.9542 21.441 29.6609C20.9251 29.3595 20.5063 28.9167 20.234 28.3849C19.9406 27.8289 19.794 27.1556 19.794 26.3649C19.794 25.5716 19.943 24.8969 20.241 24.3409C20.539 23.7849 20.9436 23.3609 21.455 23.0689C21.981 22.7715 22.5768 22.6196 23.181 22.6289C23.6023 22.6289 23.993 22.6879 24.353 22.8059C24.715 22.9252 25.0356 23.0982 25.315 23.3249C25.595 23.5496 25.8223 23.8252 25.997 24.1519C26.175 24.4786 26.2886 24.8526 26.338 25.2739Z" fill="white"/>
</svg>
