<svg width="40" height="40" viewBox="0 0 40 40" fill="none" xmlns="http://www.w3.org/2000/svg">
<path d="M7.75 4C7.75 3.13805 8.09241 2.3114 8.7019 1.7019C9.3114 1.09241 10.138 0.75 11 0.75H27C27.121 0.75 27.238 0.798 27.323 0.884L38.116 11.677C38.2014 11.7628 38.2496 11.8789 38.25 12V36C38.25 36.862 37.9076 37.6886 37.2981 38.2981C36.6886 38.9076 35.862 39.25 35 39.25H11C10.138 39.25 9.3114 38.9076 8.7019 38.2981C8.09241 37.6886 7.75 36.862 7.75 36V4Z" stroke="#D5D7DA" stroke-width="1.5"/>
<path d="M27 0.5V8C27 9.06087 27.4214 10.0783 28.1716 10.8284C28.9217 11.5786 29.9391 12 31 12H38.5" stroke="#D5D7DA" stroke-width="1.5"/>
<path d="M35 18H3C1.89543 18 1 18.8954 1 20V32C1 33.1046 1.89543 34 3 34H35C36.1046 34 37 33.1046 37 32V20C37 18.8954 36.1046 18 35 18Z" fill="#155EEF"/>
<path d="M7.4059 29.9999H4.8269V22.7269H7.4269C8.15824 22.7269 8.78824 22.8726 9.3169 23.1639C9.84357 23.4526 10.2492 23.8679 10.5339 24.4099C10.8206 24.9526 10.9639 25.6016 10.9639 26.3569C10.9639 27.1142 10.8206 27.7652 10.5339 28.3099C10.2619 28.842 9.83472 29.2789 9.3089 29.5629C8.77824 29.8542 8.1439 29.9999 7.4059 29.9999ZM6.3659 28.6829H7.3419C7.79657 28.6829 8.1789 28.6022 8.4889 28.4409C8.8009 28.2782 9.03524 28.0262 9.1919 27.6849C9.3499 27.3409 9.42924 26.8982 9.4299 26.3569C9.4299 25.8189 9.35057 25.3796 9.1919 25.0389C9.05172 24.7151 8.80461 24.4493 8.4919 24.2859C8.1819 24.1259 7.79957 24.0456 7.3449 24.0449H6.3649L6.3659 28.6829ZM18.7859 26.3629C18.7859 27.1562 18.6356 27.8312 18.3349 28.3879C18.0584 28.9214 17.6342 29.364 17.1129 29.6629C16.5839 29.9577 15.9865 30.1081 15.3809 30.0989C14.7722 30.1088 14.1718 29.9569 13.6409 29.6589C13.1211 29.3591 12.6981 28.9166 12.4219 28.3839C12.1239 27.8279 11.9749 27.1546 11.9749 26.3639C11.9749 25.5706 12.1239 24.8959 12.4219 24.3399C12.6964 23.8071 13.1195 23.3652 13.6399 23.0679C14.1708 22.7698 14.7712 22.618 15.3799 22.6279C16.0219 22.6279 16.5996 22.7746 17.1129 23.0679C17.6296 23.3592 18.0369 23.7829 18.3349 24.3389C18.6349 24.8956 18.7852 25.5696 18.7859 26.3629ZM17.2269 26.3639C17.2269 25.8506 17.1502 25.4172 16.9969 25.0639C16.8449 24.7112 16.6306 24.4439 16.3539 24.2619C16.064 24.0761 15.7252 23.981 15.3809 23.9889C15.0366 23.981 14.6978 24.0761 14.4079 24.2619C14.1306 24.4446 13.9149 24.7122 13.7609 25.0649C13.6096 25.4182 13.5339 25.8516 13.5339 26.3649C13.5339 26.8782 13.6096 27.3116 13.7609 27.6649C13.9149 28.0176 14.1306 28.2849 14.4079 28.4669C14.6839 28.6489 15.0082 28.7399 15.3809 28.7399C15.7516 28.7399 16.0759 28.6489 16.3539 28.4669C16.6306 28.2849 16.8446 28.0172 16.9959 27.6639C17.1499 27.3119 17.2269 26.8786 17.2269 26.3639ZM26.3419 25.2739H24.7869C24.7633 25.0858 24.7042 24.904 24.6129 24.7379C24.5269 24.5827 24.4122 24.4453 24.2749 24.3329C24.133 24.2198 23.9717 24.1334 23.7989 24.0779C23.6124 24.0166 23.4172 23.9862 23.2209 23.9879C22.8436 23.9879 22.5156 24.0819 22.2369 24.2699C21.9569 24.4539 21.7402 24.7239 21.5869 25.0799C21.4336 25.4319 21.3569 25.8602 21.3569 26.3649C21.3569 26.8829 21.4336 27.3182 21.5869 27.6709C21.7429 28.0242 21.9606 28.2909 22.2399 28.4709C22.5192 28.6509 22.8426 28.7409 23.2099 28.7409C23.4152 28.7409 23.6059 28.7136 23.7819 28.6589C23.9592 28.6042 24.1166 28.5249 24.2539 28.4209C24.3902 28.314 24.5055 28.1828 24.5939 28.0339C24.6872 27.8819 24.7516 27.7089 24.7869 27.5149L26.3419 27.5219C26.3019 27.8559 26.2012 28.1779 26.0399 28.4879C25.8777 28.8007 25.6598 29.0812 25.3969 29.3159C25.1164 29.5659 24.7914 29.7609 24.4389 29.8909C24.0689 30.0309 23.6509 30.1009 23.1849 30.1009C22.5356 30.1009 21.9556 29.9542 21.4449 29.6609C20.929 29.3595 20.5102 28.9167 20.2379 28.3849C19.9446 27.8289 19.7979 27.1556 19.7979 26.3649C19.7979 25.5716 19.9469 24.8969 20.2449 24.3409C20.5429 23.7849 20.9476 23.3609 21.4589 23.0689C21.9849 22.7715 22.5807 22.6196 23.1849 22.6289C23.6062 22.6289 23.9969 22.6879 24.3569 22.8059C24.7189 22.9252 25.0396 23.0982 25.3189 23.3249C25.5989 23.5496 25.8262 23.8252 26.0009 24.1519C26.1789 24.4786 26.2926 24.8526 26.3419 25.2739ZM28.7299 22.7279L30.1969 25.2069H30.2539L31.7269 22.7279H33.4639L31.2439 26.3649L33.5139 29.9999H31.7449L30.2539 27.5179H30.1969L28.7049 29.9999H26.9439L29.2199 26.3639L26.9869 22.7269L28.7299 22.7279Z" fill="white"/>
</svg>
