<svg width="40" height="40" viewBox="0 0 40 40" fill="none" xmlns="http://www.w3.org/2000/svg">
<path d="M7.75 4C7.75 3.13805 8.09241 2.3114 8.7019 1.7019C9.3114 1.09241 10.138 0.75 11 0.75H27C27.121 0.75 27.238 0.798 27.323 0.884L38.116 11.677C38.2014 11.7628 38.2496 11.8789 38.25 12V36C38.25 36.862 37.9076 37.6886 37.2981 38.2981C36.6886 38.9076 35.862 39.25 35 39.25H11C10.138 39.25 9.3114 38.9076 8.7019 38.2981C8.09241 37.6886 7.75 36.862 7.75 36V4Z" stroke="#D5D7DA" stroke-width="1.5"/>
<path d="M27 0.5V8C27 9.06087 27.4214 10.0783 28.1716 10.8284C28.9217 11.5786 29.9391 12 31 12H38.5" stroke="#D5D7DA" stroke-width="1.5"/>
<path d="M34 18H3C1.89543 18 1 18.8954 1 20V32C1 33.1046 1.89543 34 3 34H34C35.1046 34 36 33.1046 36 32V20C36 18.8954 35.1046 18 34 18Z" fill="#444CE7"/>
<path d="M4.6499 30.0001V22.7271H6.1869V25.7281H9.3099V22.7281H10.8439V30.0001H9.3089V26.9961H6.1869V30.0001H4.6499ZM11.8339 23.9951V22.7271H17.8069V23.9951H15.5799V30.0001H14.0599V23.9951H11.8339ZM18.7899 22.7271H20.6869L22.6889 27.6141H22.7749L24.7779 22.7271H26.6739V30.0001H25.1819V25.2661H25.1219L23.2399 29.9651H22.2239L20.3419 25.2491H20.2819V30.0001H18.7899V22.7271ZM27.9399 30.0001V22.7271H29.4779V28.7321H32.5959V30.0001H27.9399Z" fill="white"/>
</svg>
