<svg width="40" height="40" viewBox="0 0 40 40" fill="none" xmlns="http://www.w3.org/2000/svg">
<path d="M4.75 4C4.75 3.13805 5.09241 2.3114 5.7019 1.7019C6.3114 1.09241 7.13805 0.75 8 0.75H24C24.121 0.75 24.238 0.798 24.323 0.884L35.116 11.677C35.2014 11.7628 35.2496 11.8789 35.25 12V36C35.25 36.862 34.9076 37.6886 34.2981 38.2981C33.6886 38.9076 32.862 39.25 32 39.25H8C7.13805 39.25 6.3114 38.9076 5.7019 38.2981C5.09241 37.6886 4.75 36.862 4.75 36V4Z" stroke="#D5D7DA" stroke-width="1.5"/>
<path d="M24 0.5V8C24 9.06087 24.4214 10.0783 25.1716 10.8284C25.9217 11.5786 26.9391 12 28 12H35.5" stroke="#D5D7DA" stroke-width="1.5"/>
<path d="M25.2499 30.75H26.0079C26.7359 30.75 27.0999 30.75 27.3009 30.598C27.3873 30.5327 27.4584 30.4494 27.5095 30.3539C27.5606 30.2585 27.5904 30.1531 27.5969 30.045C27.6119 29.793 27.4099 29.49 27.0069 28.885L24.7479 25.498C24.4149 24.997 24.2479 24.747 24.0379 24.659C23.9468 24.6212 23.8491 24.6017 23.7504 24.6017C23.6518 24.6017 23.5541 24.6212 23.4629 24.659C23.2529 24.747 23.0849 24.997 22.7509 25.498L22.1929 26.335M25.2499 30.75L19.4869 22.425C19.1549 21.946 18.9889 21.707 18.7819 21.623C18.6011 21.5496 18.3988 21.5496 18.2179 21.623C18.0109 21.707 17.8449 21.946 17.5129 22.425L13.0529 28.867C12.6309 29.477 12.4199 29.782 12.4329 30.035C12.4381 30.144 12.467 30.2506 12.5176 30.3474C12.5682 30.4441 12.6393 30.5286 12.7259 30.595C12.9269 30.75 13.2979 30.75 14.0399 30.75H25.2499ZM26.7499 19.5C26.7499 20.0967 26.5129 20.669 26.0909 21.091C25.669 21.5129 25.0967 21.75 24.4999 21.75C23.9032 21.75 23.3309 21.5129 22.9089 21.091C22.487 20.669 22.2499 20.0967 22.2499 19.5C22.2499 18.9033 22.487 18.331 22.9089 17.909C23.3309 17.4871 23.9032 17.25 24.4999 17.25C25.0967 17.25 25.669 17.4871 26.0909 17.909C26.5129 18.331 26.7499 18.9033 26.7499 19.5Z" stroke="#7F56D9" stroke-width="1.5" stroke-linecap="round" stroke-linejoin="round"/>
</svg>
