<svg width="40" height="40" viewBox="0 0 40 40" fill="none" xmlns="http://www.w3.org/2000/svg">
<path d="M7.75 4C7.75 3.13805 8.09241 2.3114 8.7019 1.7019C9.3114 1.09241 10.138 0.75 11 0.75H27C27.121 0.75 27.238 0.798 27.323 0.884L38.116 11.677C38.2014 11.7628 38.2496 11.8789 38.25 12V36C38.25 36.862 37.9076 37.6886 37.2981 38.2981C36.6886 38.9076 35.862 39.25 35 39.25H11C10.138 39.25 9.3114 38.9076 8.7019 38.2981C8.09241 37.6886 7.75 36.862 7.75 36V4Z" stroke="#D5D7DA" stroke-width="1.5"/>
<path d="M27 0.5V8C27 9.06087 27.4214 10.0783 28.1716 10.8284C28.9217 11.5786 29.9391 12 31 12H38.5" stroke="#D5D7DA" stroke-width="1.5"/>
<path d="M18 18H3C1.89543 18 1 18.8954 1 20V32C1 33.1046 1.89543 34 3 34H18C19.1046 34 20 33.1046 20 32V20C20 18.8954 19.1046 18 18 18Z" fill="#444CE7"/>
<path d="M7.91597 22.7269H9.43597V27.7979C9.43597 28.2666 9.33064 28.6739 9.11997 29.0199C8.91239 29.364 8.61044 29.6413 8.24997 29.8189C7.87797 30.0056 7.44597 30.0989 6.95397 30.0989C6.51597 30.0989 6.1183 30.0223 5.76097 29.8689C5.41489 29.7213 5.12045 29.4741 4.91497 29.1589C4.70764 28.8389 4.60464 28.4376 4.60597 27.9549H6.13697C6.14164 28.1463 6.18064 28.3106 6.25397 28.4479C6.32597 28.5792 6.43338 28.6877 6.56397 28.7609C6.70905 28.8337 6.86968 28.8701 7.03197 28.8669C7.22197 28.8669 7.38197 28.8269 7.51197 28.7469C7.6465 28.6589 7.75139 28.5324 7.81297 28.3839C7.88164 28.2253 7.91597 28.0299 7.91597 27.7979V22.7269ZM14.653 24.8189C14.6445 24.6876 14.6074 24.5597 14.5441 24.4443C14.4809 24.3289 14.3931 24.2287 14.287 24.1509C14.071 23.9923 13.7786 23.9129 13.41 23.9129C13.1586 23.9129 12.9466 23.9486 12.774 24.0199C12.6172 24.0772 12.4794 24.1769 12.376 24.3079C12.2871 24.4294 12.2397 24.5764 12.241 24.7269C12.2339 24.8459 12.2625 24.9643 12.323 25.0669C12.3881 25.1682 12.474 25.2544 12.575 25.3199C12.6816 25.3886 12.805 25.4486 12.945 25.4999C13.085 25.5499 13.234 25.5929 13.392 25.6289L14.045 25.7849C14.363 25.8556 14.6543 25.9503 14.919 26.0689C15.1843 26.1869 15.414 26.3326 15.608 26.5059C15.802 26.6786 15.952 26.8819 16.058 27.1159C16.1673 27.3513 16.2233 27.6203 16.226 27.9229C16.2233 28.3676 16.1096 28.7533 15.885 29.0799C15.6616 29.4046 15.3396 29.6569 14.919 29.8369C14.499 30.0143 13.9936 30.1029 13.403 30.1029C12.8156 30.1029 12.304 30.0129 11.868 29.8329C11.4588 29.6715 11.1059 29.3937 10.853 29.0339C10.6116 28.6786 10.485 28.2396 10.473 27.7169H11.961C11.977 27.9609 12.047 28.1643 12.171 28.3269C12.2963 28.4883 12.463 28.6103 12.671 28.6929C12.8816 28.7729 13.1196 28.8129 13.385 28.8129C13.645 28.8129 13.871 28.7753 14.063 28.6999C14.239 28.637 14.3948 28.5279 14.514 28.3839C14.6195 28.2521 14.676 28.0878 14.674 27.9189C14.674 27.7563 14.6253 27.6189 14.528 27.5069C14.4123 27.381 14.2688 27.2837 14.109 27.2229C13.8923 27.1324 13.6681 27.0611 13.439 27.0099L12.646 26.8109C12.0326 26.6616 11.5486 26.4283 11.194 26.1109C10.8386 25.7943 10.662 25.3669 10.664 24.8289C10.662 24.3889 10.7793 24.0043 11.016 23.6749C11.256 23.3463 11.584 23.0896 12 22.9049C12.4166 22.7203 12.89 22.6279 13.42 22.6279C13.96 22.6279 14.4313 22.7203 14.834 22.9049C15.2393 23.0889 15.554 23.3456 15.778 23.6749C16.0033 24.0043 16.1193 24.3856 16.126 24.8189H14.653Z" fill="white"/>
</svg>
