<svg width="40" height="40" viewBox="0 0 40 40" fill="none" xmlns="http://www.w3.org/2000/svg">
<path d="M7.75 4C7.75 3.13805 8.09241 2.3114 8.7019 1.7019C9.3114 1.09241 10.138 0.75 11 0.75H27C27.121 0.75 27.238 0.798 27.323 0.884L38.116 11.677C38.2014 11.7628 38.2496 11.8789 38.25 12V36C38.25 36.862 37.9076 37.6886 37.2981 38.2981C36.6886 38.9076 35.862 39.25 35 39.25H11C10.138 39.25 9.3114 38.9076 8.7019 38.2981C8.09241 37.6886 7.75 36.862 7.75 36V4Z" stroke="#D5D7DA" stroke-width="1.5"/>
<path d="M27 0.5V8C27 9.06087 27.4214 10.0783 28.1716 10.8284C28.9217 11.5786 29.9391 12 31 12H38.5" stroke="#D5D7DA" stroke-width="1.5"/>
<path d="M33 18H3C1.89543 18 1 18.8954 1 20V32C1 33.1046 1.89543 34 3 34H33C34.1046 34 35 33.1046 35 32V20C35 18.8954 34.1046 18 33 18Z" fill="#444CE7"/>
<path d="M7.82807 22.7269H9.34807V27.7979C9.34807 28.2666 9.24274 28.6739 9.03207 29.0199C8.82449 29.364 8.52255 29.6413 8.16207 29.8189C7.79007 30.0056 7.35807 30.0989 6.86607 30.0989C6.42807 30.0989 6.0304 30.0222 5.67307 29.8689C5.32699 29.7212 5.03255 29.4741 4.82707 29.1589C4.61974 28.8389 4.51707 28.4376 4.51907 27.9549H6.04907C6.05374 28.1462 6.09274 28.3106 6.16607 28.4479C6.23808 28.5792 6.34548 28.6876 6.47607 28.7609C6.62116 28.8337 6.78178 28.8701 6.94407 28.8669C7.13407 28.8669 7.29407 28.8269 7.42407 28.7469C7.5586 28.6589 7.66349 28.5324 7.72507 28.3839C7.79374 28.2252 7.82807 28.0299 7.82807 27.7979V22.7269ZM14.5651 24.8189C14.5566 24.6876 14.5195 24.5597 14.4562 24.4443C14.393 24.3289 14.3052 24.2287 14.1991 24.1509C13.9831 23.9922 13.6907 23.9129 13.3221 23.9129C13.0707 23.9129 12.8587 23.9486 12.6861 24.0199C12.5293 24.0771 12.3915 24.1768 12.2881 24.3079C12.1992 24.4294 12.1518 24.5763 12.1531 24.7269C12.146 24.8459 12.1746 24.9642 12.2351 25.0669C12.3002 25.1681 12.3861 25.2544 12.4871 25.3199C12.5937 25.3886 12.7171 25.4486 12.8571 25.4999C12.9971 25.5499 13.1461 25.5929 13.3041 25.6289L13.9571 25.7849C14.2751 25.8556 14.5664 25.9502 14.8311 26.0689C15.0964 26.1869 15.3261 26.3326 15.5201 26.5059C15.7134 26.6786 15.8637 26.8819 15.9711 27.1159C16.0804 27.3512 16.1361 27.6202 16.1381 27.9229C16.1354 28.3676 16.0217 28.7532 15.7971 29.0799C15.5737 29.4046 15.2517 29.6569 14.8311 29.8369C14.4124 30.0142 13.9071 30.1029 13.3151 30.1029C12.7277 30.1029 12.2164 30.0129 11.7811 29.8329C11.3715 29.6717 11.0183 29.3939 10.7651 29.0339C10.5231 28.6786 10.3964 28.2396 10.3851 27.7169H11.8731C11.8897 27.9609 11.9597 28.1642 12.0831 28.3269C12.2084 28.4882 12.3751 28.6102 12.5831 28.6929C12.7937 28.7729 13.0317 28.8129 13.2971 28.8129C13.5571 28.8129 13.7831 28.7752 13.9751 28.6999C14.1511 28.637 14.3069 28.5278 14.4261 28.3839C14.5316 28.2521 14.5881 28.0877 14.5861 27.9189C14.5861 27.7562 14.5374 27.6189 14.4401 27.5069C14.3244 27.3809 14.1809 27.2837 14.0211 27.2229C13.8044 27.1324 13.5802 27.0611 13.3511 27.0099L12.5581 26.8109C11.9447 26.6616 11.4607 26.4282 11.1061 26.1109C10.7507 25.7942 10.5741 25.3669 10.5761 24.8289C10.5741 24.3889 10.6914 24.0042 10.9281 23.6749C11.1681 23.3462 11.4961 23.0896 11.9121 22.9049C12.3287 22.7202 12.8021 22.6279 13.3321 22.6279C13.8721 22.6279 14.3434 22.7202 14.7461 22.9049C15.1514 23.0889 15.4661 23.3456 15.6901 23.6749C15.9154 24.0042 16.0314 24.3856 16.0381 24.8189H14.5651ZM23.8551 26.3639C23.8551 27.1566 23.7051 27.8312 23.4051 28.3879C23.1286 28.9214 22.7043 29.364 22.1831 29.6629C21.6537 29.9579 21.056 30.1083 20.4501 30.0989C19.8414 30.1088 19.2409 29.9569 18.7101 29.6589C18.1906 29.359 17.768 28.9165 17.4921 28.3839C17.1934 27.8279 17.0441 27.1546 17.0441 26.3639C17.0441 25.5706 17.1934 24.8959 17.4921 24.3399C17.7666 23.8071 18.1896 23.3652 18.7101 23.0679C19.2409 22.7698 19.8414 22.618 20.4501 22.6279C21.0921 22.6279 21.6697 22.7746 22.1831 23.0679C22.6991 23.3592 23.1061 23.7829 23.4041 24.3389C23.7047 24.8956 23.8551 25.5706 23.8551 26.3639ZM22.2961 26.3639C22.2961 25.8506 22.2194 25.4172 22.0661 25.0639C21.9141 24.7112 21.6997 24.4436 21.4231 24.2609C21.1331 24.0751 20.7943 23.98 20.4501 23.9879C20.1058 23.98 19.767 24.0751 19.4771 24.2609C19.1997 24.4436 18.9844 24.7112 18.8311 25.0639C18.6791 25.4172 18.6031 25.8506 18.6031 26.3639C18.6031 26.8772 18.6787 27.3106 18.8301 27.6639C18.9841 28.0166 19.1997 28.2839 19.4771 28.4659C19.7537 28.6479 20.0781 28.7389 20.4501 28.7389C20.8221 28.7389 21.1464 28.6479 21.4231 28.4659C21.6997 28.2839 21.9141 28.0162 22.0661 27.6629C22.2194 27.3109 22.2961 26.8786 22.2961 26.3639ZM31.0781 22.7259V29.9999H29.7491L26.5851 25.4229H26.5321V29.9999H24.9941V22.7269H26.3441L29.4831 27.3009H29.5471V22.7269L31.0781 22.7259Z" fill="white"/>
</svg>
