<svg width="40" height="40" viewBox="0 0 40 40" fill="none" xmlns="http://www.w3.org/2000/svg">
<path d="M7.75 4C7.75 3.13805 8.09241 2.3114 8.7019 1.7019C9.3114 1.09241 10.138 0.75 11 0.75H27C27.121 0.75 27.238 0.798 27.323 0.884L38.116 11.677C38.2014 11.7628 38.2496 11.8789 38.25 12V36C38.25 36.862 37.9076 37.6886 37.2981 38.2981C36.6886 38.9076 35.862 39.25 35 39.25H11C10.138 39.25 9.3114 38.9076 8.7019 38.2981C8.09241 37.6886 7.75 36.862 7.75 36V4Z" stroke="#D5D7DA" stroke-width="1.5"/>
<path d="M27 0.5V8C27 9.06087 27.4214 10.0783 28.1716 10.8284C28.9217 11.5786 29.9391 12 31 12H38.5" stroke="#D5D7DA" stroke-width="1.5"/>
<path d="M25 18H3C1.89543 18 1 18.8954 1 20V32C1 33.1046 1.89543 34 3 34H25C26.1046 34 27 33.1046 27 32V20C27 18.8954 26.1046 18 25 18Z" fill="#D92D20"/>
<path d="M4.83203 30.0001V22.7271H7.70203C8.2527 22.7271 8.7227 22.8324 9.11203 23.0431C9.50003 23.2524 9.7957 23.5424 9.99903 23.9131C10.2057 24.2831 10.309 24.7094 10.309 25.1921C10.309 25.6747 10.2047 26.1007 9.99603 26.4701C9.78737 26.8401 9.48536 27.1277 9.09003 27.3331C8.6967 27.5391 8.22103 27.6421 7.66303 27.6421H5.83303V26.4101H7.41403C7.71003 26.4101 7.95403 26.3591 8.14603 26.2571C8.33936 26.1531 8.4837 26.0097 8.57903 25.8271C8.6757 25.6431 8.72403 25.4314 8.72403 25.1921C8.72403 24.9501 8.6757 24.7394 8.57903 24.5601C8.48352 24.3765 8.33179 24.2283 8.14603 24.1371C7.95203 24.0351 7.70536 23.9841 7.40603 23.9841H6.37003V30.0001H4.83203ZM13.885 30.0001H11.307V22.7271H13.907C14.637 22.7271 15.2667 22.8727 15.796 23.1641C16.3234 23.4527 16.7294 23.8681 17.014 24.4101C17.3007 24.9527 17.444 25.6017 17.444 26.3571C17.444 27.1144 17.3007 27.7654 17.014 28.3101C16.7418 28.8423 16.3142 29.2793 15.788 29.5631C15.258 29.8544 14.6237 30.0001 13.885 30.0001ZM12.845 28.6831H13.821C14.2757 28.6831 14.658 28.6024 14.968 28.4411C15.2814 28.2784 15.5157 28.0264 15.671 27.6851C15.8297 27.3411 15.909 26.8984 15.909 26.3571C15.909 25.8191 15.8297 25.3797 15.671 25.0391C15.5308 24.7153 15.2837 24.4495 14.971 24.2861C14.661 24.1261 14.279 24.0457 13.825 24.0451H12.845V28.6831ZM18.582 30.0001V22.7271H23.398V23.9951H20.12V25.7281H23.078V26.9961H20.12V30.0001H18.582Z" fill="white"/>
</svg>
