<svg width="40" height="40" viewBox="0 0 40 40" fill="none" xmlns="http://www.w3.org/2000/svg">
<path d="M7.75 4C7.75 3.13805 8.09241 2.3114 8.7019 1.7019C9.3114 1.09241 10.138 0.75 11 0.75H27C27.121 0.75 27.238 0.798 27.323 0.884L38.116 11.677C38.2014 11.7628 38.2496 11.8789 38.25 12V36C38.25 36.862 37.9076 37.6886 37.2981 38.2981C36.6886 38.9076 35.862 39.25 35 39.25H11C10.138 39.25 9.3114 38.9076 8.7019 38.2981C8.09241 37.6886 7.75 36.862 7.75 36V4Z" stroke="#D5D7DA" stroke-width="1.5"/>
<path d="M27 0.5V8C27 9.06087 27.4214 10.0783 28.1716 10.8284C28.9217 11.5786 29.9391 12 31 12H38.5" stroke="#D5D7DA" stroke-width="1.5"/>
<path d="M25 18H3C1.89543 18 1 18.8954 1 20V32C1 33.1046 1.89543 34 3 34H25C26.1046 34 27 33.1046 27 32V20C27 18.8954 26.1046 18 25 18Z" fill="#E62E05"/>
<path d="M4.81787 30.0001V22.7271H7.68687C8.23887 22.7271 8.70887 22.8324 9.09687 23.0431C9.48487 23.2524 9.78087 23.5424 9.98487 23.9131C10.1909 24.2831 10.2939 24.7094 10.2939 25.1921C10.2939 25.6747 10.1892 26.1007 9.97987 26.4701C9.77054 26.8394 9.46854 27.1271 9.07387 27.3331C8.6812 27.5391 8.20554 27.6421 7.64687 27.6421H5.81887V26.4101H7.39987C7.69587 26.4101 7.93987 26.3591 8.13187 26.2571C8.3252 26.1531 8.46954 26.0097 8.56487 25.8271C8.6622 25.6431 8.71087 25.4314 8.71087 25.1921C8.71087 24.9501 8.6622 24.7394 8.56487 24.5601C8.46935 24.3765 8.31763 24.2283 8.13187 24.1371C7.93854 24.0351 7.6922 23.9841 7.39287 23.9841H6.35487V30.0001H4.81787ZM11.2919 30.0001V22.7271H14.1619C14.7125 22.7271 15.1825 22.8324 15.5719 23.0431C15.9599 23.2524 16.2555 23.5424 16.4589 23.9131C16.6655 24.2831 16.7689 24.7094 16.7689 25.1921C16.7689 25.6747 16.6645 26.1007 16.4559 26.4701C16.2472 26.8401 15.9452 27.1277 15.5499 27.3331C15.1565 27.5391 14.6805 27.6421 14.1219 27.6421H12.2939V26.4101H13.8739C14.1699 26.4101 14.4135 26.3591 14.6049 26.2571C14.7995 26.1531 14.9442 26.0097 15.0389 25.8271C15.1355 25.6431 15.1839 25.4314 15.1839 25.1921C15.1839 24.9501 15.1355 24.7394 15.0389 24.5601C14.9431 24.3763 14.791 24.2281 14.6049 24.1371C14.4109 24.0351 14.1649 23.9841 13.8669 23.9841H12.8299V30.0001H11.2919ZM17.4899 23.9951V22.7271H23.4629V23.9951H21.2359V30.0001H19.7159V23.9951H17.4899Z" fill="white"/>
</svg>
