<svg width="40" height="40" viewBox="0 0 40 40" fill="none" xmlns="http://www.w3.org/2000/svg">
<path d="M7.75 4C7.75 3.13805 8.09241 2.3114 8.7019 1.7019C9.3114 1.09241 10.138 0.75 11 0.75H27C27.121 0.75 27.238 0.798 27.323 0.884L38.116 11.677C38.2014 11.7628 38.2496 11.8789 38.25 12V36C38.25 36.862 37.9076 37.6886 37.2981 38.2981C36.6886 38.9076 35.862 39.25 35 39.25H11C10.138 39.25 9.3114 38.9076 8.7019 38.2981C8.09241 37.6886 7.75 36.862 7.75 36V4Z" stroke="#D5D7DA" stroke-width="1.5"/>
<path d="M27 0.5V8C27 9.06087 27.4214 10.0783 28.1716 10.8284C28.9217 11.5786 29.9391 12 31 12H38.5" stroke="#D5D7DA" stroke-width="1.5"/>
<path d="M32 18H3C1.89543 18 1 18.8954 1 20V32C1 33.1046 1.89543 34 3 34H32C33.1046 34 34 33.1046 34 32V20C34 18.8954 33.1046 18 32 18Z" fill="#E62E05"/>
<path d="M4.74292 30.0001V22.7271H7.61292C8.16359 22.7271 8.63359 22.8324 9.02292 23.0431C9.41092 23.2524 9.70659 23.5424 9.90992 23.9131C10.1166 24.2831 10.2199 24.7094 10.2199 25.1921C10.2199 25.6747 10.1156 26.1007 9.90692 26.4701C9.69825 26.8401 9.39625 27.1277 9.00092 27.3331C8.60759 27.5391 8.13192 27.6421 7.57392 27.6421H5.74392V26.4101H7.32492C7.62092 26.4101 7.86492 26.3591 8.05692 26.2571C8.25025 26.1531 8.39459 26.0097 8.48992 25.8271C8.58659 25.6431 8.63492 25.4314 8.63492 25.1921C8.63492 24.9501 8.58659 24.7394 8.48992 24.5601C8.3944 24.3765 8.24268 24.2283 8.05692 24.1371C7.86359 24.0351 7.61725 23.9841 7.31792 23.9841H6.28092V30.0001H4.74292ZM11.2179 30.0001V22.7271H14.0879C14.6386 22.7271 15.1086 22.8324 15.4979 23.0431C15.8846 23.2524 16.1803 23.5424 16.3849 23.9131C16.5909 24.2831 16.6939 24.7094 16.6939 25.1921C16.6939 25.6747 16.5896 26.1007 16.3809 26.4701C16.1723 26.8394 15.8706 27.1271 15.4759 27.3331C15.0826 27.5391 14.6066 27.6421 14.0479 27.6421H12.2199V26.4101H13.7999C14.0959 26.4101 14.3396 26.3591 14.5309 26.2571C14.7256 26.1531 14.8699 26.0097 14.9639 25.8271C15.0613 25.6431 15.1099 25.4314 15.1099 25.1921C15.1099 24.9501 15.0613 24.7394 14.9639 24.5601C14.8684 24.3765 14.7167 24.2283 14.5309 24.1371C14.3369 24.0351 14.0909 23.9841 13.7929 23.9841H12.7559V30.0001H11.2179ZM17.4159 23.9951V22.7271H23.3889V23.9951H21.1619V30.0001H19.6419V23.9951H17.4159ZM25.8139 22.7271L27.2809 25.2061H27.3369L28.8109 22.7271H30.5479L28.3279 26.3641L30.5979 30.0001H28.8289L27.3369 27.5181H27.2809L25.7889 30.0001H24.0279L26.3039 26.3641L24.0709 22.7271H25.8139Z" fill="white"/>
</svg>
