<svg width="40" height="40" viewBox="0 0 40 40" fill="none" xmlns="http://www.w3.org/2000/svg">
<path d="M7.75 4C7.75 3.13805 8.09241 2.3114 8.7019 1.7019C9.3114 1.09241 10.138 0.75 11 0.75H27C27.121 0.75 27.238 0.798 27.323 0.884L38.116 11.677C38.2014 11.7628 38.2496 11.8789 38.25 12V36C38.25 36.862 37.9076 37.6886 37.2981 38.2981C36.6886 38.9076 35.862 39.25 35 39.25H11C10.138 39.25 9.3114 38.9076 8.7019 38.2981C8.09241 37.6886 7.75 36.862 7.75 36V4Z" stroke="#D5D7DA" stroke-width="1.5"/>
<path d="M27 0.5V8C27 9.06087 27.4214 10.0783 28.1716 10.8284C28.9217 11.5786 29.9391 12 31 12H38.5" stroke="#D5D7DA" stroke-width="1.5"/>
<path d="M26 18H3C1.89543 18 1 18.8954 1 20V32C1 33.1046 1.89543 34 3 34H26C27.1046 34 28 33.1046 28 32V20C28 18.8954 27.1046 18 26 18Z" fill="#344054"/>
<path d="M4.83008 30.0001V22.7271H7.69908C8.24841 22.7271 8.71708 22.8254 9.10508 23.0221C9.49574 23.2161 9.79275 23.4917 9.99608 23.8491C10.2027 24.2044 10.3061 24.6224 10.3061 25.1031C10.3061 25.5857 10.2017 26.0011 9.99308 26.3491C9.78441 26.6951 9.48241 26.9604 9.08708 27.1451C8.69374 27.3297 8.21808 27.4221 7.66008 27.4221H5.73808V26.1861H7.41108C7.70441 26.1861 7.94841 26.1461 8.14308 26.0661C8.32378 25.9966 8.47615 25.8689 8.57608 25.7031C8.67275 25.5431 8.72108 25.3431 8.72108 25.1031C8.72766 24.8905 8.67762 24.6799 8.57608 24.4931C8.47575 24.3228 8.32218 24.1903 8.13908 24.1161C7.94441 24.0281 7.69941 23.9841 7.40408 23.9841H6.36708V30.0001H4.83008ZM8.75708 26.6901L10.5651 30.0001H8.86708L7.09908 26.6901H8.75708ZM12.6451 30.0001H10.9981L13.5081 22.7271H15.4901L17.9971 30.0001H16.3491L14.5271 24.3901H14.4711L12.6451 30.0001ZM12.5421 27.1411H16.4351V28.3411H12.5421V27.1411ZM18.8721 30.0001V22.7271H21.7421C22.2914 22.7271 22.7601 22.8254 23.1481 23.0221C23.5387 23.2161 23.8357 23.4917 24.0391 23.8491C24.2457 24.2044 24.3491 24.6224 24.3491 25.1031C24.3491 25.5857 24.2447 26.0011 24.0361 26.3491C23.8274 26.6951 23.5254 26.9604 23.1301 27.1451C22.7367 27.3297 22.2611 27.4221 21.7031 27.4221H19.7801V26.1861H21.4531C21.7464 26.1861 21.9904 26.1461 22.1851 26.0661C22.3658 25.9966 22.5182 25.8689 22.6181 25.7031C22.7147 25.5431 22.7631 25.3431 22.7631 25.1031C22.7697 24.8905 22.7196 24.6799 22.6181 24.4931C22.5177 24.3228 22.3642 24.1903 22.1811 24.1161C21.9864 24.0281 21.7414 23.9841 21.4461 23.9841H20.4101V30.0001H18.8721ZM22.8001 26.6901L24.6071 30.0001H22.9101L21.1421 26.6901H22.8001Z" fill="white"/>
</svg>
