<svg width="40" height="40" viewBox="0 0 40 40" fill="none" xmlns="http://www.w3.org/2000/svg">
<path d="M4.75 4C4.75 3.13805 5.09241 2.3114 5.7019 1.7019C6.3114 1.09241 7.13805 0.75 8 0.75H24C24.121 0.75 24.238 0.798 24.323 0.884L35.116 11.677C35.2014 11.7628 35.2496 11.8789 35.25 12V36C35.25 36.862 34.9076 37.6886 34.2981 38.2981C33.6886 38.9076 32.862 39.25 32 39.25H8C7.13805 39.25 6.3114 38.9076 5.7019 38.2981C5.09241 37.6886 4.75 36.862 4.75 36V4Z" stroke="#D5D7DA" stroke-width="1.5"/>
<path d="M24 0.5V8C24 9.06087 24.4214 10.0783 25.1716 10.8284C25.9217 11.5786 26.9391 12 28 12H35.5" stroke="#D5D7DA" stroke-width="1.5"/>
<path d="M11.8999 24.9H28.0999M11.8999 24.9V21.3C11.8999 21.0636 11.9465 20.8296 12.0369 20.6112C12.1274 20.3928 12.26 20.1944 12.4271 20.0272C12.5943 19.8601 12.7927 19.7275 13.0111 19.637C13.2295 19.5466 13.4635 19.5 13.6999 19.5H17.2999M11.8999 24.9V28.5C11.8999 28.7364 11.9465 28.9704 12.0369 29.1888C12.1274 29.4072 12.26 29.6056 12.4271 29.7728C12.5943 29.9399 12.7927 30.0725 13.0111 30.163C13.2295 30.2534 13.4635 30.3 13.6999 30.3H17.2999M28.0999 24.9V28.5C28.0999 28.7364 28.0533 28.9704 27.9629 29.1888C27.8724 29.4072 27.7398 29.6056 27.5727 29.7728C27.4055 29.9399 27.2071 30.0725 26.9887 30.163C26.7703 30.2534 26.5363 30.3 26.2999 30.3H17.2999M28.0999 24.9V21.3C28.0999 20.8226 27.9103 20.3648 27.5727 20.0272C27.2351 19.6896 26.7773 19.5 26.2999 19.5H17.2999M17.2999 19.5V30.3" stroke="#079455" stroke-width="1.5" stroke-linecap="round" stroke-linejoin="round"/>
</svg>
