<svg width="40" height="40" viewBox="0 0 40 40" fill="none" xmlns="http://www.w3.org/2000/svg">
<path d="M7.75 4C7.75 3.13805 8.09241 2.3114 8.7019 1.7019C9.3114 1.09241 10.138 0.75 11 0.75H27C27.121 0.75 27.238 0.798 27.323 0.884L38.116 11.677C38.2014 11.7628 38.2496 11.8789 38.25 12V36C38.25 36.862 37.9076 37.6886 37.2981 38.2981C36.6886 38.9076 35.862 39.25 35 39.25H11C10.138 39.25 9.3114 38.9076 8.7019 38.2981C8.09241 37.6886 7.75 36.862 7.75 36V4Z" stroke="#D5D7DA" stroke-width="1.5"/>
<path d="M27 0.5V8C27 9.06087 27.4214 10.0783 28.1716 10.8284C28.9217 11.5786 29.9391 12 31 12H38.5" stroke="#D5D7DA" stroke-width="1.5"/>
<path d="M26 18H3C1.89543 18 1 18.8954 1 20V32C1 33.1046 1.89543 34 3 34H26C27.1046 34 28 33.1046 28 32V20C28 18.8954 27.1046 18 26 18Z" fill="#444CE7"/>
<path d="M9.05305 24.8189C9.04459 24.6876 9.00744 24.5597 8.9442 24.4443C8.88096 24.3289 8.79318 24.2287 8.68705 24.1509C8.47171 23.9922 8.17938 23.9129 7.81005 23.9129C7.55938 23.9129 7.34738 23.9486 7.17405 24.0199C7.0176 24.0773 6.88017 24.177 6.77705 24.3079C6.68816 24.4294 6.64082 24.5763 6.64205 24.7269C6.63471 24.8458 6.6629 24.9641 6.72305 25.0669C6.78847 25.1682 6.87472 25.2545 6.97605 25.3199C7.08271 25.3886 7.20571 25.4486 7.34505 25.4999C7.48505 25.5499 7.63405 25.5929 7.79205 25.6289L8.44605 25.7849C8.76338 25.8556 9.05438 25.9502 9.31905 26.0689C9.58371 26.1869 9.81371 26.3326 10.009 26.5059C10.2024 26.6786 10.3524 26.8819 10.459 27.1159C10.569 27.3512 10.6247 27.6202 10.626 27.9229C10.6234 28.3676 10.51 28.7532 10.286 29.0799C10.0634 29.4046 9.74105 29.6569 9.31905 29.8369C8.90038 30.0142 8.39505 30.1029 7.80305 30.1029C7.21638 30.1029 6.70505 30.0129 6.26905 29.8329C5.85952 29.6717 5.50628 29.3939 5.25305 29.0339C5.01171 28.6786 4.88505 28.2396 4.87305 27.7169H6.36105C6.37838 27.9609 6.44838 28.1642 6.57105 28.3269C6.69638 28.4882 6.86305 28.6102 7.07105 28.6929C7.28238 28.7729 7.52038 28.8129 7.78505 28.8129C8.04505 28.8129 8.27138 28.7752 8.46405 28.6999C8.63968 28.6368 8.79511 28.5277 8.91405 28.3839C9.01955 28.2521 9.0761 28.0877 9.07405 27.9189C9.07405 27.7562 9.02571 27.6189 8.92905 27.5069C8.81307 27.3808 8.66925 27.2836 8.50905 27.2229C8.2924 27.1324 8.0682 27.0611 7.83905 27.0099L7.04705 26.8109C6.43371 26.6616 5.94938 26.4282 5.59405 26.1109C5.23938 25.7942 5.06305 25.3669 5.06505 24.8289C5.06305 24.3889 5.18038 24.0042 5.41705 23.6749C5.65638 23.3462 5.98405 23.0896 6.40005 22.9049C6.81671 22.7202 7.29005 22.6279 7.82005 22.6279C8.36005 22.6279 8.83138 22.7202 9.23405 22.9049C9.63871 23.0889 9.95371 23.3456 10.179 23.6749C10.4044 24.0042 10.5204 24.3856 10.527 24.8189H9.05305ZM14.405 27.4719H15.712L16.369 28.3169L17.015 29.0699L18.234 30.5969H16.799L15.961 29.5669L15.531 28.9559L14.405 27.4719ZM18.344 26.3639C18.344 27.1566 18.1937 27.8312 17.893 28.3879C17.6165 28.9214 17.1923 29.364 16.671 29.6629C16.1417 29.9579 15.544 30.1083 14.938 30.0989C14.3293 30.1088 13.7289 29.9569 13.198 29.6589C12.6783 29.3594 12.2555 28.9168 11.98 28.3839C11.682 27.8279 11.533 27.1546 11.533 26.3639C11.533 25.5706 11.682 24.8959 11.98 24.3399C12.2545 23.8071 12.6776 23.3652 13.198 23.0679C13.7289 22.7698 14.3293 22.618 14.938 22.6279C15.58 22.6279 16.1577 22.7746 16.671 23.0679C17.187 23.3592 17.5944 23.7829 17.893 24.3389C18.193 24.8956 18.344 25.5706 18.344 26.3639ZM16.783 26.3639C16.783 25.8506 16.7064 25.4172 16.553 25.0639C16.401 24.7112 16.1867 24.4436 15.91 24.2609C15.6201 24.0751 15.2813 23.98 14.937 23.9879C14.5928 23.98 14.254 24.0751 13.964 24.2609C13.6874 24.4436 13.472 24.7112 13.318 25.0639C13.166 25.4172 13.09 25.8506 13.09 26.3639C13.09 26.8772 13.166 27.3106 13.318 27.6639C13.472 28.0166 13.6874 28.2839 13.964 28.4659C14.2407 28.6479 14.565 28.7389 14.937 28.7389C15.309 28.7389 15.6334 28.6479 15.91 28.4659C16.1867 28.2839 16.401 28.0162 16.553 27.6629C16.7064 27.3109 16.783 26.8786 16.783 26.3639ZM19.484 29.9999V22.7269H21.021V28.7319H24.139V29.9999H19.484Z" fill="white"/>
</svg>
