<svg width="40" height="40" viewBox="0 0 40 40" fill="none" xmlns="http://www.w3.org/2000/svg">
<path d="M7.75 4C7.75 3.13805 8.09241 2.3114 8.7019 1.7019C9.3114 1.09241 10.138 0.75 11 0.75H27C27.121 0.75 27.238 0.798 27.323 0.884L38.116 11.677C38.2014 11.7628 38.2496 11.8789 38.25 12V36C38.25 36.862 37.9076 37.6886 37.2981 38.2981C36.6886 38.9076 35.862 39.25 35 39.25H11C10.138 39.25 9.3114 38.9076 8.7019 38.2981C8.09241 37.6886 7.75 36.862 7.75 36V4Z" stroke="#D5D7DA" stroke-width="1.5"/>
<path d="M27 0.5V8C27 9.06087 27.4214 10.0783 28.1716 10.8284C28.9217 11.5786 29.9391 12 31 12H38.5" stroke="#D5D7DA" stroke-width="1.5"/>
<path d="M27 18H3C1.89543 18 1 18.8954 1 20V32C1 33.1046 1.89543 34 3 34H27C28.1046 34 29 33.1046 29 32V20C29 18.8954 28.1046 18 27 18Z" fill="#7F56D9"/>
<path d="M8.96198 24.8191C8.95353 24.6878 8.91637 24.5599 8.85313 24.4445C8.7899 24.3291 8.70212 24.2289 8.59598 24.1511C8.38132 23.9924 8.08898 23.9131 7.71898 23.9131C7.46832 23.9131 7.25665 23.9488 7.08398 24.0201C6.92717 24.0773 6.78937 24.1771 6.68598 24.3081C6.59709 24.4296 6.54975 24.5766 6.55098 24.7271C6.54394 24.8461 6.57249 24.9644 6.63298 25.0671C6.69812 25.1683 6.78402 25.2546 6.88498 25.3201C6.99165 25.3888 7.11498 25.4488 7.25498 25.5001C7.39432 25.5501 7.54332 25.5931 7.70198 25.6291L8.35498 25.7851C8.67165 25.8558 8.96298 25.9504 9.22898 26.0691C9.49365 26.1871 9.72298 26.3328 9.91698 26.5061C10.1116 26.6788 10.262 26.8821 10.368 27.1161C10.4773 27.3514 10.533 27.6204 10.535 27.9231C10.533 28.3678 10.4196 28.7534 10.195 29.0801C9.97165 29.4048 9.64965 29.6571 9.22898 29.8371C8.80898 30.0144 8.30332 30.1031 7.71198 30.1031C7.12532 30.1031 6.61398 30.0131 6.17798 29.8331C5.76846 29.6719 5.41521 29.3941 5.16198 29.0341C4.92065 28.6788 4.79398 28.2398 4.78198 27.7171H6.26998C6.28732 27.9611 6.35732 28.1644 6.47998 28.3271C6.60532 28.4884 6.77198 28.6104 6.97998 28.6931C7.19132 28.7731 7.42932 28.8131 7.69398 28.8131C7.95398 28.8131 8.18032 28.7754 8.37298 28.7001C8.54862 28.6371 8.70405 28.5279 8.82298 28.3841C8.92849 28.2523 8.98503 28.0879 8.98298 27.9191C8.98298 27.7564 8.93465 27.6191 8.83798 27.5071C8.72201 27.381 8.57819 27.2838 8.41798 27.2231C8.20133 27.1326 7.97713 27.0613 7.74798 27.0101L6.95598 26.8111C6.34265 26.6618 5.85832 26.4284 5.50298 26.1111C5.14832 25.7944 4.97198 25.3671 4.97398 24.8291C4.97198 24.3891 5.08932 24.0044 5.32598 23.6751C5.56532 23.3464 5.89298 23.0898 6.30898 22.9051C6.72565 22.7204 7.19898 22.6281 7.72898 22.6281C8.26898 22.6281 8.74032 22.7204 9.14298 22.9051C9.54765 23.0891 9.86265 23.3458 10.088 23.6751C10.3133 24.0044 10.4293 24.3858 10.436 24.8191H8.96198ZM12.884 22.7271L14.641 28.2531H14.709L16.47 22.7271H18.175L15.668 30.0001H13.686L11.176 22.7271H12.884ZM23.462 25.0781C23.4166 24.9153 23.3457 24.7607 23.252 24.6201C23.162 24.4848 23.052 24.3714 22.922 24.2801C22.7893 24.1821 22.6403 24.1083 22.482 24.0621C22.3055 24.0113 22.1226 23.9864 21.939 23.9881C21.567 23.9881 21.2403 24.0804 20.959 24.2651C20.679 24.4498 20.461 24.7184 20.305 25.0711C20.149 25.4218 20.071 25.8501 20.071 26.3561C20.071 26.8628 20.1477 27.2938 20.301 27.6491C20.4563 28.0044 20.6743 28.2754 20.955 28.4621C21.237 28.6468 21.5696 28.7391 21.953 28.7391C22.301 28.7391 22.5983 28.6778 22.845 28.5551C23.093 28.4298 23.2823 28.2531 23.413 28.0251C23.545 27.7984 23.611 27.5301 23.611 27.2201L23.924 27.2661H22.049V26.1081H25.092V27.0241C25.092 27.6641 24.9573 28.2134 24.688 28.6721C24.4237 29.1234 24.0367 29.4903 23.572 29.7301C23.0987 29.9768 22.5566 30.1001 21.946 30.1001C21.2646 30.1001 20.6656 29.9494 20.149 29.6481C19.6313 29.3432 19.2123 28.8957 18.942 28.3591C18.6553 27.8011 18.512 27.1384 18.512 26.3711C18.512 25.7818 18.5973 25.2561 18.768 24.7941C18.9413 24.3301 19.1827 23.9371 19.492 23.6151C19.7966 23.2958 20.1658 23.0452 20.575 22.8801C21.0008 22.7091 21.4561 22.6235 21.915 22.6281C22.3257 22.6281 22.709 22.6881 23.065 22.8081C23.4203 22.9274 23.735 23.0958 24.009 23.3131C24.2857 23.5311 24.5116 23.7904 24.687 24.0911C24.863 24.3891 24.9756 24.7181 25.025 25.0781H23.462Z" fill="white"/>
</svg>
