<svg width="40" height="40" viewBox="0 0 40 40" fill="none" xmlns="http://www.w3.org/2000/svg">
<path d="M7.75 4C7.75 3.13805 8.09241 2.3114 8.7019 1.7019C9.3114 1.09241 10.138 0.75 11 0.75H27C27.121 0.75 27.238 0.798 27.323 0.884L38.116 11.677C38.2014 11.7628 38.2496 11.8789 38.25 12V36C38.25 36.862 37.9076 37.6886 37.2981 38.2981C36.6886 38.9076 35.862 39.25 35 39.25H11C10.138 39.25 9.3114 38.9076 8.7019 38.2981C8.09241 37.6886 7.75 36.862 7.75 36V4Z" stroke="#D5D7DA" stroke-width="1.5"/>
<path d="M27 0.5V8C27 9.06087 27.4214 10.0783 28.1716 10.8284C28.9217 11.5786 29.9391 12 31 12H38.5" stroke="#D5D7DA" stroke-width="1.5"/>
<path d="M26 18H3C1.89543 18 1 18.8954 1 20V32C1 33.1046 1.89543 34 3 34H26C27.1046 34 28 33.1046 28 32V20C28 18.8954 27.1046 18 26 18Z" fill="#475467"/>
<path d="M4.60107 23.9951V22.7271H10.5741V23.9951H8.34807V30.0001H6.82807V23.9951H4.60107ZM13.0001 22.7271L14.4661 25.2061H14.5231L15.9971 22.7271H17.7331L15.5131 26.3641L17.7841 30.0001H16.0161L14.5241 27.5181H14.4671L12.9751 30.0001H11.2131L13.4901 26.3641L11.2561 22.7271H13.0001ZM18.4301 23.9951V22.7271H24.4021V23.9951H22.1761V30.0001H20.6561V23.9951H18.4301Z" fill="white"/>
</svg>
