<svg width="40" height="40" viewBox="0 0 40 40" fill="none" xmlns="http://www.w3.org/2000/svg">
<path d="M4.75 4C4.75 3.13805 5.09241 2.3114 5.7019 1.7019C6.3114 1.09241 7.13805 0.75 8 0.75H24C24.121 0.75 24.238 0.798 24.323 0.884L35.116 11.677C35.2014 11.7628 35.2496 11.8789 35.25 12V36C35.25 36.862 34.9076 37.6886 34.2981 38.2981C33.6886 38.9076 32.862 39.25 32 39.25H8C7.13805 39.25 6.3114 38.9076 5.7019 38.2981C5.09241 37.6886 4.75 36.862 4.75 36V4Z" stroke="#D5D7DA" stroke-width="1.5"/>
<path d="M24 0.5V8C24 9.06087 24.4214 10.0783 25.1716 10.8284C25.9217 11.5786 26.9391 12 28 12H35.5" stroke="#D5D7DA" stroke-width="1.5"/>
<mask id="mask0_298183_5414" style="mask-type:luminance" maskUnits="userSpaceOnUse" x="11" y="15" width="18" height="18">
<path d="M11 15H29V33H11V15Z" fill="white"/>
</mask>
<g mask="url(#mask0_298183_5414)">
<path d="M12.5 24H27.5M12.5 20.25H16.25M23.75 20.25H27.5M12.5 27.75H16.25M23.75 27.75H27.5M16.25 31.5V16.5M23.75 31.5V16.5M16.1 31.5H23.9C25.16 31.5 25.79 31.5 26.272 31.255C26.695 31.039 27.039 30.695 27.255 30.272C27.5 29.79 27.5 29.16 27.5 27.9V20.1C27.5 18.84 27.5 18.21 27.255 17.728C27.0393 17.3048 26.6952 16.9607 26.272 16.745C25.79 16.5 25.16 16.5 23.9 16.5H16.1C14.84 16.5 14.21 16.5 13.728 16.745C13.305 16.961 12.961 17.305 12.745 17.728C12.5 18.21 12.5 18.84 12.5 20.1V27.9C12.5 29.16 12.5 29.79 12.745 30.272C12.961 30.695 13.305 31.039 13.729 31.255C14.209 31.5 14.839 31.5 16.1 31.5Z" stroke="#155EEF" stroke-width="1.5" stroke-linecap="round" stroke-linejoin="round"/>
</g>
</svg>
