<svg width="40" height="40" viewBox="0 0 40 40" fill="none" xmlns="http://www.w3.org/2000/svg">
<path d="M7.75 4C7.75 3.13805 8.09241 2.3114 8.7019 1.7019C9.3114 1.09241 10.138 0.75 11 0.75H27C27.121 0.75 27.238 0.798 27.323 0.884L38.116 11.677C38.2014 11.7628 38.2496 11.8789 38.25 12V36C38.25 36.862 37.9076 37.6886 37.2981 38.2981C36.6886 38.9076 35.862 39.25 35 39.25H11C10.138 39.25 9.3114 38.9076 8.7019 38.2981C8.09241 37.6886 7.75 36.862 7.75 36V4Z" stroke="#D5D7DA" stroke-width="1.5"/>
<path d="M27 0.5V8C27 9.06087 27.4214 10.0783 28.1716 10.8284C28.9217 11.5786 29.9391 12 31 12H38.5" stroke="#D5D7DA" stroke-width="1.5"/>
<path d="M25 18H3C1.89543 18 1 18.8954 1 20V32C1 33.1046 1.89543 34 3 34H25C26.1046 34 27 33.1046 27 32V20C27 18.8954 26.1046 18 25 18Z" fill="#079455"/>
<path d="M6.3861 22.7269L7.8531 25.2059H7.9101L9.3841 22.7269H11.1201L8.9001 26.3639L11.1701 29.9999H9.4001L7.9101 27.5179H7.8531L6.3621 29.9999H4.6001L6.8761 26.3639L4.6431 22.7269H6.3861ZM12.0931 29.9999V22.7269H13.6311V28.7319H16.7491V29.9999H12.0931ZM21.7131 24.8189C21.7045 24.6875 21.6672 24.5596 21.6038 24.4442C21.5404 24.3287 21.4524 24.2286 21.3461 24.1509C21.1314 23.9923 20.8391 23.9129 20.4691 23.9129C20.2184 23.9129 20.0068 23.9486 19.8341 24.0199C19.6773 24.0772 19.5395 24.1769 19.4361 24.3079C19.3472 24.4294 19.2999 24.5764 19.3011 24.7269C19.2941 24.8459 19.3226 24.9643 19.3831 25.0669C19.4482 25.1682 19.5341 25.2544 19.6351 25.3199C19.7418 25.3886 19.8651 25.4486 20.0051 25.4999C20.1444 25.5499 20.2934 25.5929 20.4521 25.6289L21.1051 25.7849C21.4218 25.8556 21.7131 25.9503 21.9791 26.0689C22.2438 26.1869 22.4731 26.3326 22.6671 26.5059C22.8618 26.6786 23.0121 26.8819 23.1181 27.1159C23.2281 27.3513 23.2838 27.6203 23.2851 27.9229C23.2831 28.3676 23.1698 28.7533 22.9451 29.0799C22.7224 29.4046 22.4004 29.6569 21.9791 29.8369C21.5591 30.0143 21.0534 30.1029 20.4621 30.1029C19.8754 30.1029 19.3641 30.0129 18.9281 29.8329C18.5189 29.6715 18.1661 29.3937 17.9131 29.0339C17.6711 28.6786 17.5444 28.2396 17.5331 27.7169H19.0201C19.0368 27.9609 19.1068 28.1643 19.2301 28.3269C19.3554 28.4883 19.5221 28.6103 19.7301 28.6929C19.9414 28.7729 20.1794 28.8129 20.4441 28.8129C20.7041 28.8129 20.9304 28.7753 21.1231 28.6999C21.2987 28.6369 21.4542 28.5277 21.5731 28.3839C21.6786 28.2521 21.7351 28.0878 21.7331 27.9189C21.7331 27.7563 21.6848 27.6189 21.5881 27.5069C21.4721 27.3808 21.3283 27.2836 21.1681 27.2229C20.9514 27.1324 20.7272 27.0611 20.4981 27.0099L19.7061 26.8109C19.0928 26.6616 18.6084 26.4283 18.2531 26.1109C17.8984 25.7943 17.7221 25.3669 17.7241 24.8289C17.7221 24.3889 17.8394 24.0043 18.0761 23.6749C18.3154 23.3463 18.6431 23.0896 19.0591 22.9049C19.4758 22.7203 19.9491 22.6279 20.4791 22.6279C21.0191 22.6279 21.4904 22.7203 21.8931 22.9049C22.2984 23.0889 22.6134 23.3456 22.8381 23.6749C23.0628 24.0043 23.1788 24.3856 23.1861 24.8189H21.7131Z" fill="white"/>
</svg>
