<svg width="40" height="40" viewBox="0 0 40 40" fill="none" xmlns="http://www.w3.org/2000/svg">
<path d="M7.75 4C7.75 3.13805 8.09241 2.3114 8.7019 1.7019C9.3114 1.09241 10.138 0.75 11 0.75H27C27.121 0.75 27.238 0.798 27.323 0.884L38.116 11.677C38.2014 11.7628 38.2496 11.8789 38.25 12V36C38.25 36.862 37.9076 37.6886 37.2981 38.2981C36.6886 38.9076 35.862 39.25 35 39.25H11C10.138 39.25 9.3114 38.9076 8.7019 38.2981C8.09241 37.6886 7.75 36.862 7.75 36V4Z" stroke="#D5D7DA" stroke-width="1.5"/>
<path d="M27 0.5V8C27 9.06087 27.4214 10.0783 28.1716 10.8284C28.9217 11.5786 29.9391 12 31 12H38.5" stroke="#D5D7DA" stroke-width="1.5"/>
<path d="M32 18H3C1.89543 18 1 18.8954 1 20V32C1 33.1046 1.89543 34 3 34H32C33.1046 34 34 33.1046 34 32V20C34 18.8954 33.1046 18 32 18Z" fill="#079455"/>
<path d="M6.31188 22.7269L7.77888 25.2059H7.83588L9.30888 22.7269H11.0459L8.82588 26.3639L11.0959 29.9999H9.32688L7.83588 27.5179H7.77888L6.28688 29.9999H4.52588L6.80188 26.3639L4.56888 22.7269H6.31188ZM12.0199 29.9999V22.7269H13.5569V28.7319H16.6749V29.9999H12.0199ZM21.6389 24.8189C21.6304 24.6876 21.5933 24.5597 21.53 24.4443C21.4668 24.3289 21.379 24.2287 21.2729 24.1509C21.0575 23.9923 20.7652 23.9129 20.3959 23.9129C20.1452 23.9129 19.9332 23.9486 19.7599 24.0199C19.6034 24.0773 19.466 24.177 19.3629 24.3079C19.274 24.4294 19.2266 24.5764 19.2279 24.7269C19.2205 24.8458 19.2487 24.9641 19.3089 25.0669C19.3754 25.1673 19.4615 25.2534 19.5619 25.3199C19.6685 25.3886 19.7915 25.4486 19.9309 25.4999C20.0709 25.5499 20.2199 25.5929 20.3779 25.6289L21.0319 25.7849C21.3492 25.8556 21.6402 25.9503 21.9049 26.0689C22.1702 26.1869 22.4002 26.3326 22.5949 26.5059C22.7882 26.6786 22.9382 26.8819 23.0449 27.1159C23.1542 27.3513 23.2099 27.6203 23.2119 27.9229C23.2092 28.3676 23.0959 28.7533 22.8719 29.0799C22.6492 29.4046 22.3269 29.6569 21.9049 29.8369C21.4862 30.0143 20.9809 30.1029 20.3889 30.1029C19.8015 30.1029 19.2902 30.0129 18.8549 29.8329C18.4454 29.6717 18.0921 29.3939 17.8389 29.0339C17.5975 28.6786 17.4709 28.2396 17.4589 27.7169H18.9469C18.9635 27.9609 19.0335 28.1643 19.1569 28.3269C19.2822 28.4883 19.4489 28.6103 19.6569 28.6929C19.8682 28.7729 20.1062 28.8129 20.3709 28.8129C20.6309 28.8129 20.8569 28.7753 21.0489 28.6999C21.2252 28.6372 21.3814 28.528 21.5009 28.3839C21.6064 28.2521 21.6629 28.0878 21.6609 27.9189C21.6602 27.7563 21.6115 27.6189 21.5149 27.5069C21.3989 27.3808 21.2551 27.2836 21.0949 27.2229C20.8782 27.1324 20.654 27.0611 20.4249 27.0099L19.6329 26.8109C19.0195 26.6616 18.5352 26.4283 18.1799 26.1109C17.8252 25.7943 17.6489 25.3669 17.6509 24.8289C17.6489 24.3889 17.7662 24.0043 18.0029 23.6749C18.2422 23.3463 18.5699 23.0896 18.9859 22.9049C19.4025 22.7203 19.8759 22.6279 20.4059 22.6279C20.9459 22.6279 21.4172 22.7203 21.8199 22.9049C22.2252 23.0889 22.5402 23.3456 22.7649 23.6749C22.9895 24.0043 23.1055 24.3856 23.1129 24.8189H21.6389ZM25.6889 22.7269L27.1549 25.2059H27.2119L28.6849 22.7269H30.4219L28.2019 26.3639L30.4709 29.9999H28.7019L27.2109 27.5179H27.1539L25.6619 29.9999H23.9009L26.1769 26.3639L23.9439 22.7269H25.6889Z" fill="white"/>
</svg>
