<svg width="40" height="40" viewBox="0 0 40 40" fill="none" xmlns="http://www.w3.org/2000/svg">
<path d="M7.75 4C7.75 3.13805 8.09241 2.3114 8.7019 1.7019C9.3114 1.09241 10.138 0.75 11 0.75H27C27.121 0.75 27.238 0.798 27.323 0.884L38.116 11.677C38.2014 11.7628 38.2496 11.8789 38.25 12V36C38.25 36.862 37.9076 37.6886 37.2981 38.2981C36.6886 38.9076 35.862 39.25 35 39.25H11C10.138 39.25 9.3114 38.9076 8.7019 38.2981C8.09241 37.6886 7.75 36.862 7.75 36V4Z" stroke="#D5D7DA" stroke-width="1.5"/>
<path d="M27 0.5V8C27 9.06087 27.4214 10.0783 28.1716 10.8284C28.9217 11.5786 29.9391 12 31 12H38.5" stroke="#D5D7DA" stroke-width="1.5"/>
<path d="M27 18H3C1.89543 18 1 18.8954 1 20V32C1 33.1046 1.89543 34 3 34H27C28.1046 34 29 33.1046 29 32V20C29 18.8954 28.1046 18 27 18Z" fill="#444CE7"/>
<path d="M6.08805 22.7271L7.55405 25.2061H7.61105L9.08505 22.7271H10.821L8.60105 26.3641L10.872 30.0001H9.10205L7.61105 27.5181H7.55405L6.06305 30.0001H4.30005L6.57705 26.3641L4.34305 22.7271H6.08805ZM11.794 22.7271H13.69L15.693 27.6141H15.779L17.781 22.7271H19.678V30.0001H18.186V25.2661H18.126L16.244 29.9651H15.228L13.346 25.2491H13.286V30.0001H11.794V22.7271ZM20.944 30.0001V22.7271H22.482V28.7321H25.6V30.0001H20.944Z" fill="white"/>
</svg>
