<svg width="40" height="40" viewBox="0 0 40 40" fill="none" xmlns="http://www.w3.org/2000/svg">
<path d="M7.75 4C7.75 3.13805 8.09241 2.3114 8.7019 1.7019C9.3114 1.09241 10.138 0.75 11 0.75H27C27.121 0.75 27.238 0.798 27.323 0.884L38.116 11.677C38.2014 11.7628 38.2496 11.8789 38.25 12V36C38.25 36.862 37.9076 37.6886 37.2981 38.2981C36.6886 38.9076 35.862 39.25 35 39.25H11C10.138 39.25 9.3114 38.9076 8.7019 38.2981C8.09241 37.6886 7.75 36.862 7.75 36V4Z" stroke="#D5D7DA" stroke-width="1.5"/>
<path d="M27 0.5V8C27 9.06087 27.4214 10.0783 28.1716 10.8284C28.9217 11.5786 29.9391 12 31 12H38.5" stroke="#D5D7DA" stroke-width="1.5"/>
<path d="M21 18H3C1.89543 18 1 18.8954 1 20V32C1 33.1046 1.89543 34 3 34H21C22.1046 34 23 33.1046 23 32V20C23 18.8954 22.1046 18 21 18Z" fill="#344054"/>
<path d="M4.58 30.0001V29.0871L8.21 23.9951H4.573V22.7271H10.141V23.6401L6.51 28.7321H10.15V30.0001H4.58ZM12.866 22.7271V30.0001H11.328V22.7271H12.866ZM14.131 30.0001V22.7271H17.001C17.5517 22.7271 18.0217 22.8324 18.411 23.0431C18.7977 23.2524 19.0933 23.5424 19.298 23.9131C19.504 24.2831 19.607 24.7094 19.607 25.1921C19.607 25.6747 19.503 26.1007 19.295 26.4701C19.087 26.8394 18.785 27.1271 18.389 27.3331C17.9957 27.5391 17.5197 27.6421 16.961 27.6421H15.133V26.4101H16.713C17.009 26.4101 17.2527 26.3591 17.444 26.2571C17.6387 26.1531 17.7833 26.0097 17.878 25.8271C17.9747 25.6431 18.023 25.4314 18.023 25.1921C18.023 24.9501 17.9747 24.7394 17.878 24.5601C17.7822 24.3763 17.6301 24.2281 17.444 24.1371C17.25 24.0351 17.004 23.9841 16.706 23.9841H15.669V30.0001H14.131Z" fill="white"/>
</svg>
